<svg width="54" height="38" viewBox="0 0 54 38" fill="none" xmlns="http://www.w3.org/2000/svg">
<path d="M40.7672 7.65621C40.6072 13.7362 38.1672 13.8562 36.5672 13.8562C35.7672 13.8562 33.7672 14.0562 33.7672 7.65621C33.7672 1.25622 36.4339 0.322884 37.7672 0.656213C38.8339 0.456213 40.9272 1.57621 40.7672 7.65621Z" fill="black"/>
<path d="M21.3672 7.65621C21.2072 13.7362 18.7672 13.8562 17.1672 13.8562C16.3672 13.8562 14.3672 14.0562 14.3672 7.65621C14.3672 1.25622 17.0338 0.322884 18.3672 0.656213C19.4338 0.456213 21.5272 1.57621 21.3672 7.65621Z" fill="black"/>
<path d="M45.5672 19.5978C45.2472 21.0378 47.3005 21.1311 48.3672 20.9978C47.1005 25.2644 42.3279 34.3978 27.3672 34.9978C13.5848 35.5505 6.96719 25.9311 5.3672 20.7978C6.92795 20.9978 8.91266 20.3978 8.36721 19.1978C7.5672 17.4378 4.43385 18.5978 2.96718 19.3978C1.52788 20.1828 -0.392821 22.4378 0.567179 23.3978C1.52718 24.3578 2.96718 22.9978 3.56718 22.1978C7.24718 34.6778 20.9672 37.5311 27.3672 37.3978C41.9279 37.0944 48.6338 27.6644 50.3672 22.1978C50.5005 22.9311 51.5182 24.6656 53.1672 23.3978C54.7279 22.1978 52.5279 20.1978 50.1672 19.1978C48.7222 18.5857 45.8872 18.1578 45.5672 19.5978Z" fill="black"/>
<path d="M40.7672 7.65621C40.6072 13.7362 38.1672 13.8562 36.5672 13.8562C35.7672 13.8562 33.7672 14.0562 33.7672 7.65621C33.7672 1.25622 36.4339 0.322884 37.7672 0.656213C38.8339 0.456213 40.9272 1.57621 40.7672 7.65621Z" stroke="black" stroke-width="0.4"/>
<path d="M21.3672 7.65621C21.2072 13.7362 18.7672 13.8562 17.1672 13.8562C16.3672 13.8562 14.3672 14.0562 14.3672 7.65621C14.3672 1.25622 17.0338 0.322884 18.3672 0.656213C19.4338 0.456213 21.5272 1.57621 21.3672 7.65621Z" stroke="black" stroke-width="0.4"/>
<path d="M45.5672 19.5978C45.2472 21.0378 47.3005 21.1311 48.3672 20.9978C47.1005 25.2644 42.3279 34.3978 27.3672 34.9978C13.5848 35.5505 6.96719 25.9311 5.3672 20.7978C6.92795 20.9978 8.91266 20.3978 8.36721 19.1978C7.5672 17.4378 4.43385 18.5978 2.96718 19.3978C1.52788 20.1828 -0.392821 22.4378 0.567179 23.3978C1.52718 24.3578 2.96718 22.9978 3.56718 22.1978C7.24718 34.6778 20.9672 37.5311 27.3672 37.3978C41.9279 37.0944 48.6338 27.6644 50.3672 22.1978C50.5005 22.9311 51.5182 24.6656 53.1672 23.3978C54.7279 22.1978 52.5279 20.1978 50.1672 19.1978C48.7222 18.5857 45.8872 18.1578 45.5672 19.5978Z" stroke="black" stroke-width="0.4"/>
</svg>
