<svg width="42" height="30" viewBox="0 0 42 30" fill="none" xmlns="http://www.w3.org/2000/svg">
<path d="M13.7041 11.0505L10.1041 7.65051L6.5041 11.0505C4.42404 11.5305 4.57074 10.1838 4.9041 9.45051L8.10417 5.85051L4.9041 2.05051C3.9441 0.450507 5.57077 0.317176 6.5041 0.45051L10.1041 4.05051L14.1041 0.45051C15.5441 -0.0294898 15.5041 1.31718 15.3041 2.05051L11.5041 5.85051L15.3041 9.45051C15.7841 11.3705 14.4374 11.3172 13.7041 11.0505Z" fill="black"/>
<path d="M34.3042 11.0506L30.7042 7.65056L27.1042 11.0506C25.0241 11.5306 25.1708 10.1839 25.5042 9.45056L28.7042 5.85056L25.5042 2.05056C24.5442 0.450557 26.1708 0.317225 27.1042 0.450559L30.7042 4.05056L34.7042 0.450559C36.1442 -0.029441 36.1042 1.31723 35.9042 2.05056L32.1042 5.85056L35.9042 9.45056C36.3842 11.3706 35.0375 11.3172 34.3042 11.0506Z" fill="black"/>
<path d="M2.50417 29.6506C-0.0558262 29.1706 0.770841 27.8506 1.50417 27.2506L39.7042 19.4506C42.2642 20.4106 41.0376 21.7172 40.1042 22.2506L2.50417 29.6506Z" fill="black"/>
<path d="M13.7041 11.0505L10.1041 7.65051L6.5041 11.0505C4.42404 11.5305 4.57074 10.1838 4.9041 9.45051L8.10417 5.85051L4.9041 2.05051C3.9441 0.450507 5.57077 0.317176 6.5041 0.45051L10.1041 4.05051L14.1041 0.45051C15.5441 -0.0294898 15.5041 1.31718 15.3041 2.05051L11.5041 5.85051L15.3041 9.45051C15.7841 11.3705 14.4374 11.3172 13.7041 11.0505Z" stroke="black" stroke-width="0.4"/>
<path d="M34.3042 11.0506L30.7042 7.65056L27.1042 11.0506C25.0241 11.5306 25.1708 10.1839 25.5042 9.45056L28.7042 5.85056L25.5042 2.05056C24.5442 0.450557 26.1708 0.317225 27.1042 0.450559L30.7042 4.05056L34.7042 0.450559C36.1442 -0.029441 36.1042 1.31723 35.9042 2.05056L32.1042 5.85056L35.9042 9.45056C36.3842 11.3706 35.0375 11.3172 34.3042 11.0506Z" stroke="black" stroke-width="0.4"/>
<path d="M2.50417 29.6506C-0.0558262 29.1706 0.770841 27.8506 1.50417 27.2506L39.7042 19.4506C42.2642 20.4106 41.0376 21.7172 40.1042 22.2506L2.50417 29.6506Z" stroke="black" stroke-width="0.4"/>
</svg>
