<svg width="24" height="24" viewBox="0 0 24 24" fill="none" xmlns="http://www.w3.org/2000/svg">
<path d="M24 4.5V1.5C24 1.1 23.85 0.75 23.55 0.45C23.25 0.15 22.9 0 22.5 0H19.5C19.075 0 18.7125 0.15 18.4125 0.45C18.1375 0.75 18 1.1125 18 1.5375V4.5C18 4.925 18.1375 5.2875 18.4125 5.5875C18.7125 5.8625 19.075 6 19.5 6H22.5C22.9 6 23.25 5.8625 23.55 5.5875C23.85 5.2875 24 4.925 24 4.5Z" fill="#1D1D1D"/>
<path d="M15 4.5V1.5C15 1.1 14.85 0.75 14.55 0.45C14.25 0.15 13.9 0 13.5 0H10.5C10.075 0 9.71249 0.15 9.41249 0.45C9.13749 0.75 9 1.1125 9 1.5375V4.5C9 4.925 9.13749 5.2875 9.41249 5.5875C9.71249 5.8625 10.075 6 10.5 6H13.5C13.9 6 14.25 5.8625 14.55 5.5875C14.85 5.2875 15 4.925 15 4.5Z" fill="#1D1D1D"/>
<path d="M22.5 9H19.5C19.075 9 18.7125 9.15 18.4125 9.45C18.1375 9.75 18 10.1125 18 10.5375V13.5C18 13.925 18.1375 14.2875 18.4125 14.5875C18.7125 14.8625 19.075 15 19.5 15H22.5C22.9 15 23.25 14.8625 23.55 14.5875C23.85 14.2875 24 13.925 24 13.5V10.5C24 10.1 23.85 9.75 23.55 9.45C23.25 9.15 22.9 9 22.5 9Z" fill="#1D1D1D"/>
<path d="M15 10.5C15 10.1 14.85 9.75 14.55 9.45C14.25 9.15 13.9 9 13.5 9H10.5C10.075 9 9.71249 9.15 9.41249 9.45C9.13749 9.75 9 10.1125 9 10.5375V13.5C9 13.925 9.13749 14.2875 9.41249 14.5875C9.71249 14.8625 10.075 15 10.5 15H13.5C13.9 15 14.25 14.8625 14.55 14.5875C14.85 14.2875 15 13.925 15 13.5V10.5Z" fill="#1D1D1D"/>
<path d="M24 22.5V19.5C24 19.1 23.85 18.75 23.55 18.45C23.25 18.15 22.9 18 22.5 18H19.5C19.075 18 18.7125 18.15 18.4125 18.45C18.1375 18.75 18 19.1125 18 19.5375V22.5C18 22.925 18.1375 23.2875 18.4125 23.5875C18.7125 23.8625 19.075 24 19.5 24H22.5C22.9 24 23.25 23.8625 23.55 23.5875C23.85 23.2875 24 22.925 24 22.5Z" fill="#1D1D1D"/>
<path d="M15 19.5C15 19.1 14.85 18.75 14.55 18.45C14.25 18.15 13.9 18 13.5 18H10.5C10.075 18 9.71249 18.15 9.41249 18.45C9.13749 18.75 9 19.1125 9 19.5375V22.5C9 22.925 9.13749 23.2875 9.41249 23.5875C9.71249 23.8625 10.075 24 10.5 24H13.5C13.9 24 14.25 23.8625 14.55 23.5875C14.85 23.2875 15 22.925 15 22.5V19.5Z" fill="#1D1D1D"/>
<path d="M6 4.5V1.5C6 1.1 5.85002 0.75 5.55002 0.45C5.25002 0.15 4.9 0 4.5 0H1.5C1.075 0 0.712491 0.15 0.412491 0.45C0.137491 0.75 0 1.1125 0 1.5375V4.5C0 4.925 0.137491 5.2875 0.412491 5.5875C0.712491 5.8625 1.075 6 1.5 6H4.5C4.9 6 5.25002 5.8625 5.55002 5.5875C5.85002 5.2875 6 4.925 6 4.5Z" fill="#1D1D1D"/>
<path d="M5.55002 9.45C5.25002 9.15 4.9 9 4.5 9H1.5C1.075 9 0.712491 9.15 0.412491 9.45C0.137491 9.75 0 10.1125 0 10.5375V13.5C0 13.925 0.137491 14.2875 0.412491 14.5875C0.712491 14.8625 1.075 15 1.5 15H4.5C4.9 15 5.25002 14.8625 5.55002 14.5875C5.85002 14.2875 6 13.925 6 13.5V10.5C6 10.1 5.85002 9.75 5.55002 9.45Z" fill="#1D1D1D"/>
<path d="M6 22.5V19.5C6 19.1 5.85002 18.75 5.55002 18.45C5.25002 18.15 4.9 18 4.5 18H1.5C1.075 18 0.712491 18.15 0.412491 18.45C0.137491 18.75 0 19.1125 0 19.5375V22.5C0 22.925 0.137491 23.2875 0.412491 23.5875C0.712491 23.8625 1.075 24 1.5 24H4.5C4.9 24 5.25002 23.8625 5.55002 23.5875C5.85002 23.2875 6 22.925 6 22.5Z" fill="#1D1D1D"/>
</svg>
