<svg width="36" height="28" viewBox="0 0 36 28" fill="none" xmlns="http://www.w3.org/2000/svg">
<path d="M32.0093 7.52926C31.8493 13.6093 29.4093 13.7293 27.8093 13.7293C27.0093 13.7293 25.0093 13.9292 25.0093 7.52926C25.0093 1.12927 27.6759 0.195931 29.0093 0.52926C30.0759 0.32926 32.1693 1.44926 32.0093 7.52926Z" fill="black"/>
<path d="M12.6092 7.52926C12.4492 13.6093 10.0092 13.7293 8.40923 13.7293C7.60923 13.7293 5.60923 13.9292 5.60923 7.52926C5.60923 1.12927 8.27589 0.195931 9.60923 0.52926C10.6759 0.32926 12.7692 1.44926 12.6092 7.52926Z" fill="black"/>
<path d="M1.80923 27.5292C-0.910774 26.4092 0.675892 25.4626 1.80923 25.1292H34.8091C36.4091 26.0892 35.4758 27.1292 34.8091 27.5292H1.80923Z" fill="black"/>
<path d="M32.0093 7.52926C31.8493 13.6093 29.4093 13.7293 27.8093 13.7293C27.0093 13.7293 25.0093 13.9292 25.0093 7.52926C25.0093 1.12927 27.6759 0.195931 29.0093 0.52926C30.0759 0.32926 32.1693 1.44926 32.0093 7.52926Z" stroke="black" stroke-width="0.4"/>
<path d="M12.6092 7.52926C12.4492 13.6093 10.0092 13.7293 8.40923 13.7293C7.60923 13.7293 5.60923 13.9292 5.60923 7.52926C5.60923 1.12927 8.27589 0.195931 9.60923 0.52926C10.6759 0.32926 12.7692 1.44926 12.6092 7.52926Z" stroke="black" stroke-width="0.4"/>
<path d="M1.80923 27.5292C-0.910774 26.4092 0.675892 25.4626 1.80923 25.1292H34.8091C36.4091 26.0892 35.4758 27.1292 34.8091 27.5292H1.80923Z" stroke="black" stroke-width="0.4"/>
</svg>
