<svg width="36" height="24" viewBox="0 0 36 24" fill="none" xmlns="http://www.w3.org/2000/svg">
<path d="M25.4066 2.14286L25.0549 2.57143C25.4066 3.45714 25.5824 4.42857 25.5824 5.48572C25.5824 6.25714 25.4652 7.01429 25.2308 7.75715L25.3626 7.84286L25.1868 7.92857L24.923 8.52857L26.7253 9.98572V10.0286C29.1575 12.4 30.3736 15.2714 30.3736 18.6429V18.6857V18.8143C31.6337 18.6429 32.7619 18.2857 33.7583 17.7429C35.2528 17 36 16.0714 36 14.9571V14.9143C36 12.8286 35.2528 11.0429 33.7583 9.55714C32.9963 8.78572 32.1612 8.21429 31.2527 7.84286C32.0439 7.04286 32.4396 6.1 32.4396 5.01428C32.4396 3.9 32.0439 2.94286 31.2527 2.14286C30.4322 1.34286 29.4506 0.942856 28.3077 0.942856C27.1941 0.942856 26.2271 1.34286 25.4066 2.14286Z" fill="black"/>
<path d="M25.2747 11.4429C24.5128 10.7 23.6777 10.0857 22.7692 9.6L21.978 9.21429C23.0037 8.18571 23.5165 6.94286 23.5165 5.48572C23.5165 3.97143 22.989 2.68572 21.9341 1.62857C20.8498 0.542858 19.5458 0 18.022 0C16.4982 0 15.2088 0.542858 14.1538 1.62857C13.0696 2.68572 12.5275 3.97143 12.5275 5.48572C12.5275 6.94286 13.0403 8.18571 14.0659 9.21429L13.2308 9.6C12.3516 10.0857 11.5165 10.7 10.7253 11.4429C8.73261 13.4429 7.73625 15.8429 7.73625 18.6429V18.6857V18.9429C7.85347 20.3143 8.84982 21.4857 10.7253 22.4571C12.7473 23.4857 15.1795 24 18.022 24C20.8645 24 23.282 23.4857 25.2747 22.4571C27.1795 21.4857 28.1905 20.3143 28.3077 18.9429V18.6857V18.6429C28.3077 15.8429 27.2967 13.4429 25.2747 11.4429Z" fill="black"/>
<path d="M10.4616 5.48572C10.4616 4.42857 10.652 3.45714 11.033 2.57143L10.6813 2.14286C9.86082 1.34286 8.87911 0.942856 7.73625 0.942856C6.59339 0.942856 5.61173 1.34286 4.79122 2.14286C4.00001 2.94286 3.60437 3.9 3.60437 5.01428C3.60437 6.1 4.00001 7.04286 4.79122 7.84286C3.85349 8.21429 3.01829 8.78572 2.28569 9.55714C0.761883 11.0429 0 12.8286 0 14.9143V14.9571C0.029304 16.0714 0.791187 17 2.28569 17.7429C3.28203 18.2857 4.41027 18.6429 5.67034 18.8143V18.6429C5.67034 15.2714 6.88642 12.4 9.31866 10.0286V9.98572C9.87543 9.44286 10.4762 8.95714 11.1209 8.52857L10.9011 7.97143L10.6813 7.84286L10.8132 7.71429C10.5787 7 10.4616 6.25714 10.4616 5.48572Z" fill="black"/>
</svg>
